<svg xmlns="http://www.w3.org/2000/svg" xmlns:xlink="http://www.w3.org/1999/xlink" width="500" zoomAndPan="magnify" viewBox="0 0 375 245.249991" height="327" preserveAspectRatio="xMidYMid meet" version="1.0"><defs><clipPath id="bd3887d700"><path d="M 4.503906 184 L 370.78125 184 L 370.78125 243.945312 L 4.503906 243.945312 Z M 4.503906 184 " clip-rule="nonzero"/></clipPath><clipPath id="ecece1fcef"><path d="M 154 29.304688 L 279.359375 29.304688 L 279.359375 108 L 154 108 Z M 154 29.304688 " clip-rule="nonzero"/></clipPath><clipPath id="e5e5adaa63"><path d="M 96.078125 76 L 169 76 L 169 86 L 96.078125 86 Z M 96.078125 76 " clip-rule="nonzero"/></clipPath></defs><g clip-path="url(#bd3887d700)"><path fill="#ffffff" d="M 240.488281 229.015625 L 134.796875 229.015625 C 134.070312 229.015625 133.605469 228.25 133.941406 227.605469 L 142.074219 211.941406 C 142.242188 211.621094 142.574219 211.421875 142.933594 211.421875 L 232.351562 211.421875 C 232.710938 211.421875 233.042969 211.621094 233.210938 211.941406 L 241.347656 227.605469 C 241.679688 228.25 241.214844 229.015625 240.488281 229.015625 Z M 368.449219 230.792969 L 324.679688 187.027344 C 323.1875 185.53125 321.160156 184.691406 319.046875 184.691406 L 56.238281 184.691406 C 54.125 184.691406 52.097656 185.53125 50.601562 187.027344 L 6.839844 230.792969 C 5.339844 232.289062 4.503906 234.316406 4.503906 236.429688 C 4.503906 240.832031 8.070312 244.398438 12.472656 244.398438 L 362.8125 244.398438 C 367.214844 244.398438 370.78125 240.832031 370.78125 236.429688 C 370.78125 234.316406 369.945312 232.289062 368.449219 230.792969 " fill-opacity="1" fill-rule="nonzero"/></g><path fill="#ffffff" d="M 309.25 0.0859375 L 66.039062 0.0859375 C 59 0.0859375 53.246094 5.84375 53.246094 12.882812 L 53.246094 157.277344 C 53.246094 164.3125 59 170.070312 66.039062 170.070312 L 309.25 170.070312 C 316.285156 170.070312 322.042969 164.3125 322.042969 157.277344 L 322.042969 12.882812 C 322.042969 5.84375 316.285156 0.0859375 309.25 0.0859375 Z M 307.234375 14.894531 L 307.234375 155.261719 L 68.054688 155.261719 L 68.054688 14.894531 L 307.234375 14.894531 " fill-opacity="1" fill-rule="nonzero"/><g clip-path="url(#ecece1fcef)"><path fill="#a6a6a6" d="M 279.21875 50.746094 L 266.554688 103.339844 C 266.554688 103.84375 266.453125 104.328125 266.261719 104.796875 C 266.066406 105.261719 265.789062 105.675781 265.433594 106.03125 C 265.078125 106.386719 264.664062 106.664062 264.199219 106.859375 C 263.730469 107.050781 263.246094 107.148438 262.742188 107.152344 L 177.417969 107.769531 C 176.914062 107.769531 176.429688 107.671875 175.960938 107.476562 C 175.496094 107.28125 175.082031 107.007812 174.726562 106.648438 C 174.367188 106.292969 174.09375 105.878906 173.898438 105.414062 C 173.707031 104.949219 173.605469 104.460938 173.605469 103.957031 L 173.605469 50.738281 C 173.605469 50.632812 173.609375 50.53125 173.617188 50.425781 L 172.464844 40.128906 L 159.851562 40.128906 C 159.507812 40.117188 159.167969 40.070312 158.828125 39.988281 C 158.492188 39.910156 158.167969 39.800781 157.851562 39.65625 C 157.535156 39.515625 157.238281 39.34375 156.953125 39.144531 C 156.671875 38.945312 156.410156 38.722656 156.171875 38.472656 C 155.929688 38.222656 155.71875 37.953125 155.53125 37.664062 C 155.339844 37.371094 155.183594 37.066406 155.054688 36.746094 C 154.925781 36.425781 154.828125 36.09375 154.761719 35.753906 C 154.695312 35.417969 154.664062 35.074219 154.664062 34.726562 C 154.664062 34.382812 154.695312 34.039062 154.761719 33.699219 C 154.828125 33.359375 154.925781 33.03125 155.054688 32.707031 C 155.183594 32.386719 155.339844 32.082031 155.53125 31.792969 C 155.71875 31.5 155.929688 31.230469 156.171875 30.980469 C 156.410156 30.734375 156.671875 30.507812 156.953125 30.308594 C 157.238281 30.109375 157.535156 29.9375 157.851562 29.796875 C 158.167969 29.65625 158.492188 29.546875 158.828125 29.464844 C 159.167969 29.386719 159.507812 29.339844 159.851562 29.324219 L 182.117188 29.324219 C 182.117188 29.34375 182.117188 29.363281 182.117188 29.382812 L 183.320312 40.136719 L 184.082031 46.929688 L 275.402344 46.929688 C 275.910156 46.929688 276.394531 47.027344 276.859375 47.222656 C 277.328125 47.417969 277.738281 47.691406 278.097656 48.050781 C 278.453125 48.40625 278.730469 48.820312 278.925781 49.285156 C 279.117188 49.753906 279.214844 50.238281 279.21875 50.746094 Z M 279.21875 50.746094 " fill-opacity="1" fill-rule="nonzero"/></g><path fill="#a6a6a6" d="M 200.15625 125.066406 C 200.15625 125.976562 200.066406 126.882812 199.886719 127.777344 C 199.710938 128.671875 199.445312 129.539062 199.097656 130.382812 C 198.746094 131.226562 198.320312 132.027344 197.8125 132.785156 C 197.304688 133.542969 196.730469 134.246094 196.085938 134.890625 C 195.4375 135.535156 194.738281 136.113281 193.976562 136.621094 C 193.21875 137.128906 192.417969 137.554688 191.574219 137.90625 C 190.734375 138.253906 189.863281 138.515625 188.96875 138.695312 C 188.074219 138.875 187.167969 138.960938 186.257812 138.960938 C 185.34375 138.960938 184.441406 138.875 183.546875 138.695312 C 182.652344 138.515625 181.78125 138.253906 180.9375 137.90625 C 180.097656 137.554688 179.296875 137.128906 178.535156 136.621094 C 177.777344 136.113281 177.074219 135.535156 176.429688 134.890625 C 175.785156 134.246094 175.210938 133.542969 174.703125 132.785156 C 174.195312 132.027344 173.765625 131.226562 173.417969 130.382812 C 173.070312 129.539062 172.804688 128.671875 172.628906 127.777344 C 172.449219 126.882812 172.359375 125.976562 172.359375 125.066406 C 172.359375 124.152344 172.449219 123.25 172.628906 122.355469 C 172.804688 121.457031 173.070312 120.589844 173.417969 119.746094 C 173.765625 118.902344 174.195312 118.101562 174.703125 117.34375 C 175.210938 116.585938 175.785156 115.882812 176.429688 115.238281 C 177.074219 114.59375 177.777344 114.015625 178.535156 113.511719 C 179.296875 113.003906 180.097656 112.574219 180.9375 112.226562 C 181.78125 111.875 182.652344 111.613281 183.546875 111.433594 C 184.441406 111.257812 185.34375 111.167969 186.257812 111.167969 C 187.167969 111.167969 188.074219 111.257812 188.96875 111.433594 C 189.863281 111.613281 190.734375 111.875 191.574219 112.226562 C 192.417969 112.574219 193.21875 113.003906 193.976562 113.511719 C 194.738281 114.015625 195.4375 114.59375 196.085938 115.238281 C 196.730469 115.882812 197.304688 116.585938 197.8125 117.34375 C 198.320312 118.101562 198.746094 118.902344 199.097656 119.746094 C 199.445312 120.589844 199.710938 121.457031 199.886719 122.355469 C 200.066406 123.25 200.15625 124.152344 200.15625 125.066406 Z M 200.15625 125.066406 " fill-opacity="1" fill-rule="nonzero"/><path fill="#a6a6a6" d="M 239.375 125.066406 C 239.375 125.976562 239.289062 126.882812 239.109375 127.777344 C 238.929688 128.671875 238.667969 129.539062 238.320312 130.382812 C 237.96875 131.226562 237.542969 132.027344 237.035156 132.785156 C 236.527344 133.542969 235.953125 134.246094 235.304688 134.890625 C 234.660156 135.535156 233.957031 136.113281 233.199219 136.621094 C 232.441406 137.128906 231.640625 137.554688 230.796875 137.90625 C 229.953125 138.253906 229.085938 138.515625 228.191406 138.695312 C 227.296875 138.875 226.390625 138.960938 225.480469 138.960938 C 224.566406 138.960938 223.664062 138.875 222.769531 138.695312 C 221.875 138.515625 221.003906 138.253906 220.160156 137.90625 C 219.316406 137.554688 218.515625 137.128906 217.757812 136.621094 C 217 136.113281 216.296875 135.535156 215.652344 134.890625 C 215.007812 134.246094 214.429688 133.542969 213.925781 132.785156 C 213.417969 132.027344 212.988281 131.226562 212.640625 130.382812 C 212.289062 129.539062 212.027344 128.671875 211.847656 127.777344 C 211.671875 126.882812 211.582031 125.976562 211.582031 125.066406 C 211.582031 124.152344 211.671875 123.25 211.847656 122.355469 C 212.027344 121.457031 212.289062 120.589844 212.640625 119.746094 C 212.988281 118.902344 213.417969 118.101562 213.925781 117.34375 C 214.429688 116.585938 215.007812 115.882812 215.652344 115.238281 C 216.296875 114.59375 217 114.015625 217.757812 113.511719 C 218.515625 113.003906 219.316406 112.574219 220.160156 112.226562 C 221.003906 111.875 221.875 111.613281 222.769531 111.433594 C 223.664062 111.257812 224.566406 111.167969 225.480469 111.167969 C 226.390625 111.167969 227.296875 111.257812 228.191406 111.433594 C 229.085938 111.613281 229.953125 111.875 230.796875 112.226562 C 231.640625 112.574219 232.441406 113.003906 233.199219 113.511719 C 233.957031 114.015625 234.660156 114.59375 235.304688 115.238281 C 235.953125 115.882812 236.527344 116.585938 237.035156 117.34375 C 237.542969 118.101562 237.96875 118.902344 238.320312 119.746094 C 238.667969 120.589844 238.929688 121.457031 239.109375 122.355469 C 239.289062 123.25 239.375 124.152344 239.375 125.066406 Z M 239.375 125.066406 " fill-opacity="1" fill-rule="nonzero"/><path fill="#a6a6a6" d="M 132.519531 51.5625 L 164.328125 51.5625 C 164.820312 51.5625 165.292969 51.65625 165.75 51.84375 C 166.203125 52.03125 166.601562 52.300781 166.949219 52.648438 C 167.296875 52.996094 167.566406 53.394531 167.753906 53.847656 C 167.941406 54.304688 168.035156 54.777344 168.035156 55.265625 L 168.035156 56.195312 C 168.035156 56.683594 167.941406 57.15625 167.753906 57.613281 C 167.566406 58.066406 167.296875 58.464844 166.949219 58.8125 C 166.601562 59.160156 166.203125 59.429688 165.75 59.617188 C 165.292969 59.804688 164.820312 59.898438 164.328125 59.898438 L 132.519531 59.898438 C 132.027344 59.898438 131.554688 59.804688 131.101562 59.617188 C 130.648438 59.429688 130.246094 59.160156 129.898438 58.8125 C 129.550781 58.464844 129.285156 58.066406 129.097656 57.613281 C 128.90625 57.15625 128.8125 56.683594 128.8125 56.195312 L 128.8125 55.265625 C 128.8125 54.777344 128.90625 54.304688 129.097656 53.847656 C 129.285156 53.394531 129.550781 52.996094 129.898438 52.648438 C 130.246094 52.300781 130.648438 52.03125 131.101562 51.84375 C 131.554688 51.65625 132.027344 51.5625 132.519531 51.5625 Z M 132.519531 51.5625 " fill-opacity="1" fill-rule="nonzero"/><path fill="#a6a6a6" d="M 132.519531 103.445312 L 164.328125 103.445312 C 164.820312 103.445312 165.292969 103.539062 165.75 103.726562 C 166.203125 103.917969 166.601562 104.183594 166.949219 104.53125 C 167.296875 104.878906 167.566406 105.28125 167.753906 105.734375 C 167.941406 106.1875 168.035156 106.660156 168.035156 107.152344 L 168.035156 108.078125 C 168.035156 108.570312 167.941406 109.042969 167.753906 109.496094 C 167.566406 109.949219 167.296875 110.351562 166.949219 110.699219 C 166.601562 111.046875 166.203125 111.3125 165.75 111.503906 C 165.292969 111.691406 164.820312 111.785156 164.328125 111.785156 L 132.519531 111.785156 C 132.027344 111.785156 131.554688 111.691406 131.101562 111.503906 C 130.648438 111.3125 130.246094 111.046875 129.898438 110.699219 C 129.550781 110.351562 129.285156 109.949219 129.097656 109.496094 C 128.90625 109.042969 128.8125 108.570312 128.8125 108.078125 L 128.8125 107.152344 C 128.8125 106.660156 128.90625 106.1875 129.097656 105.734375 C 129.285156 105.28125 129.550781 104.878906 129.898438 104.53125 C 130.246094 104.183594 130.648438 103.917969 131.101562 103.726562 C 131.554688 103.539062 132.027344 103.445312 132.519531 103.445312 Z M 132.519531 103.445312 " fill-opacity="1" fill-rule="nonzero"/><g clip-path="url(#e5e5adaa63)"><path fill="#a6a6a6" d="M 100.246094 76.886719 L 163.867188 76.886719 C 164.140625 76.886719 164.410156 76.914062 164.679688 76.964844 C 164.949219 77.019531 165.210938 77.097656 165.460938 77.203125 C 165.714844 77.308594 165.957031 77.4375 166.183594 77.589844 C 166.410156 77.742188 166.621094 77.914062 166.816406 78.109375 C 167.007812 78.300781 167.179688 78.511719 167.332031 78.738281 C 167.484375 78.96875 167.613281 79.207031 167.71875 79.460938 C 167.824219 79.714844 167.902344 79.972656 167.957031 80.242188 C 168.007812 80.511719 168.035156 80.78125 168.035156 81.054688 C 168.035156 81.328125 168.007812 81.601562 167.957031 81.867188 C 167.902344 82.136719 167.824219 82.398438 167.71875 82.652344 C 167.613281 82.902344 167.484375 83.144531 167.332031 83.371094 C 167.179688 83.597656 167.007812 83.808594 166.816406 84.003906 C 166.621094 84.195312 166.410156 84.371094 166.183594 84.523438 C 165.957031 84.675781 165.714844 84.800781 165.460938 84.90625 C 165.210938 85.011719 164.949219 85.089844 164.679688 85.144531 C 164.410156 85.199219 164.140625 85.226562 163.867188 85.226562 L 100.246094 85.226562 C 99.972656 85.226562 99.703125 85.199219 99.433594 85.144531 C 99.164062 85.089844 98.902344 85.011719 98.652344 84.90625 C 98.398438 84.800781 98.15625 84.675781 97.929688 84.523438 C 97.703125 84.371094 97.492188 84.195312 97.296875 84.003906 C 97.105469 83.808594 96.933594 83.597656 96.78125 83.371094 C 96.628906 83.144531 96.5 82.902344 96.394531 82.652344 C 96.289062 82.398438 96.210938 82.136719 96.15625 81.867188 C 96.105469 81.601562 96.078125 81.328125 96.078125 81.054688 C 96.078125 80.78125 96.105469 80.511719 96.15625 80.242188 C 96.210938 79.972656 96.289062 79.714844 96.394531 79.460938 C 96.5 79.207031 96.628906 78.96875 96.78125 78.738281 C 96.933594 78.511719 97.105469 78.300781 97.296875 78.109375 C 97.492188 77.914062 97.703125 77.742188 97.929688 77.589844 C 98.15625 77.4375 98.398438 77.308594 98.652344 77.203125 C 98.902344 77.097656 99.164062 77.019531 99.433594 76.964844 C 99.703125 76.914062 99.972656 76.886719 100.246094 76.886719 Z M 100.246094 76.886719 " fill-opacity="1" fill-rule="nonzero"/></g></svg>