<svg xmlns="http://www.w3.org/2000/svg" xmlns:xlink="http://www.w3.org/1999/xlink" width="500" zoomAndPan="magnify" viewBox="0 0 375 374.999991" height="500" preserveAspectRatio="xMidYMid meet" version="1.0"><defs><g/><clipPath id="ab9b63fba6"><path d="M 81.078125 175.320312 L 293.914062 175.320312 L 293.914062 210.175781 L 81.078125 210.175781 Z M 81.078125 175.320312 " clip-rule="nonzero"/></clipPath><clipPath id="d404fc9d80"><path d="M 109 68.425781 L 266 68.425781 L 266 168 L 109 168 Z M 109 68.425781 " clip-rule="nonzero"/></clipPath><clipPath id="9c3dae46cf"><path d="M 168 85.453125 L 240.789062 85.453125 L 240.789062 132 L 168 132 Z M 168 85.453125 " clip-rule="nonzero"/></clipPath><clipPath id="2b0d899536"><path d="M 178 133 L 195 133 L 195 149.203125 L 178 149.203125 Z M 178 133 " clip-rule="nonzero"/></clipPath><clipPath id="d42a584869"><path d="M 201 133 L 218 133 L 218 149.203125 L 201 149.203125 Z M 201 133 " clip-rule="nonzero"/></clipPath><clipPath id="3d752f64e7"><path d="M 134.289062 113 L 177 113 L 177 118 L 134.289062 118 Z M 134.289062 113 " clip-rule="nonzero"/></clipPath></defs><g clip-path="url(#ab9b63fba6)"><path fill="#ffffff" d="M 218.203125 201.5 L 156.789062 201.5 C 156.367188 201.5 156.09375 201.054688 156.289062 200.679688 L 161.015625 191.582031 C 161.113281 191.394531 161.308594 191.277344 161.515625 191.277344 L 213.476562 191.277344 C 213.683594 191.277344 213.878906 191.394531 213.972656 191.582031 L 218.699219 200.679688 C 218.894531 201.054688 218.625 201.5 218.203125 201.5 Z M 292.554688 202.53125 L 267.125 177.101562 C 266.257812 176.234375 265.078125 175.746094 263.851562 175.746094 L 111.140625 175.746094 C 109.910156 175.746094 108.734375 176.234375 107.863281 177.101562 L 82.433594 202.53125 C 81.566406 203.402344 81.078125 204.578125 81.078125 205.808594 C 81.078125 208.367188 83.152344 210.441406 85.707031 210.441406 L 289.28125 210.441406 C 291.839844 210.441406 293.914062 208.367188 293.914062 205.808594 C 293.914062 204.578125 293.425781 203.402344 292.554688 202.53125 " fill-opacity="1" fill-rule="nonzero"/></g><g clip-path="url(#d404fc9d80)"><path fill="#ffffff" d="M 258.15625 68.476562 L 116.832031 68.476562 C 112.746094 68.476562 109.398438 71.820312 109.398438 75.910156 L 109.398438 159.816406 C 109.398438 163.902344 112.746094 167.25 116.832031 167.25 L 258.15625 167.25 C 262.246094 167.25 265.589844 163.902344 265.589844 159.816406 L 265.589844 75.910156 C 265.589844 71.820312 262.246094 68.476562 258.15625 68.476562 Z M 256.988281 77.082031 L 256.988281 158.644531 L 118.003906 158.644531 L 118.003906 77.082031 L 256.988281 77.082031 " fill-opacity="1" fill-rule="nonzero"/></g><g clip-path="url(#9c3dae46cf)"><path fill="#a6a6a6" d="M 240.707031 97.910156 L 233.347656 128.472656 C 233.347656 128.765625 233.289062 129.046875 233.179688 129.320312 C 233.066406 129.589844 232.90625 129.828125 232.699219 130.039062 C 232.488281 130.246094 232.25 130.40625 231.980469 130.519531 C 231.707031 130.632812 231.425781 130.6875 231.132812 130.6875 L 181.554688 131.046875 C 181.261719 131.046875 180.980469 130.992188 180.707031 130.878906 C 180.4375 130.765625 180.199219 130.605469 179.988281 130.398438 C 179.78125 130.1875 179.621094 129.949219 179.507812 129.679688 C 179.394531 129.40625 179.339844 129.125 179.339844 128.832031 L 179.339844 97.910156 C 179.339844 97.847656 179.339844 97.789062 179.347656 97.726562 L 178.675781 91.742188 L 171.347656 91.742188 C 170.941406 91.726562 170.554688 91.636719 170.183594 91.46875 C 169.8125 91.304688 169.488281 91.074219 169.207031 90.78125 C 168.925781 90.488281 168.710938 90.152344 168.558594 89.777344 C 168.40625 89.402344 168.332031 89.011719 168.332031 88.605469 C 168.332031 88.199219 168.40625 87.808594 168.558594 87.433594 C 168.710938 87.054688 168.925781 86.722656 169.207031 86.429688 C 169.488281 86.136719 169.8125 85.90625 170.183594 85.738281 C 170.554688 85.574219 170.941406 85.480469 171.347656 85.464844 L 184.285156 85.464844 C 184.285156 85.476562 184.285156 85.488281 184.285156 85.5 L 184.984375 91.746094 L 185.425781 95.695312 L 238.492188 95.695312 C 238.785156 95.695312 239.066406 95.753906 239.335938 95.867188 C 239.609375 95.976562 239.847656 96.140625 240.054688 96.347656 C 240.261719 96.554688 240.421875 96.792969 240.535156 97.066406 C 240.648438 97.335938 240.707031 97.617188 240.707031 97.910156 Z M 240.707031 97.910156 " fill-opacity="1" fill-rule="nonzero"/></g><g clip-path="url(#2b0d899536)"><path fill="#a6a6a6" d="M 194.765625 141.097656 C 194.765625 141.628906 194.714844 142.152344 194.609375 142.671875 C 194.507812 143.191406 194.355469 143.699219 194.152344 144.1875 C 193.949219 144.679688 193.699219 145.144531 193.40625 145.585938 C 193.109375 146.023438 192.773438 146.433594 192.398438 146.808594 C 192.023438 147.183594 191.617188 147.515625 191.175781 147.8125 C 190.734375 148.105469 190.269531 148.355469 189.78125 148.558594 C 189.289062 148.761719 188.785156 148.914062 188.265625 149.019531 C 187.746094 149.121094 187.21875 149.171875 186.691406 149.171875 C 186.160156 149.171875 185.636719 149.121094 185.113281 149.019531 C 184.59375 148.914062 184.089844 148.761719 183.601562 148.558594 C 183.109375 148.355469 182.644531 148.105469 182.203125 147.8125 C 181.761719 147.515625 181.355469 147.183594 180.980469 146.808594 C 180.605469 146.433594 180.269531 146.023438 179.976562 145.585938 C 179.679688 145.144531 179.433594 144.679688 179.230469 144.1875 C 179.027344 143.699219 178.875 143.191406 178.769531 142.671875 C 178.667969 142.152344 178.613281 141.628906 178.613281 141.097656 C 178.613281 140.566406 178.667969 140.042969 178.769531 139.523438 C 178.875 139.003906 179.027344 138.496094 179.230469 138.007812 C 179.433594 137.519531 179.679688 137.050781 179.976562 136.613281 C 180.269531 136.171875 180.605469 135.761719 180.980469 135.386719 C 181.355469 135.011719 181.761719 134.679688 182.203125 134.382812 C 182.644531 134.089844 183.109375 133.839844 183.601562 133.636719 C 184.089844 133.433594 184.59375 133.28125 185.113281 133.175781 C 185.636719 133.074219 186.160156 133.023438 186.691406 133.023438 C 187.21875 133.023438 187.746094 133.074219 188.265625 133.175781 C 188.785156 133.28125 189.289062 133.433594 189.78125 133.636719 C 190.269531 133.839844 190.734375 134.089844 191.175781 134.382812 C 191.617188 134.679688 192.023438 135.011719 192.398438 135.386719 C 192.773438 135.761719 193.109375 136.171875 193.40625 136.613281 C 193.699219 137.050781 193.949219 137.519531 194.152344 138.007812 C 194.355469 138.496094 194.507812 139.003906 194.609375 139.523438 C 194.714844 140.042969 194.765625 140.566406 194.765625 141.097656 Z M 194.765625 141.097656 " fill-opacity="1" fill-rule="nonzero"/></g><g clip-path="url(#d42a584869)"><path fill="#a6a6a6" d="M 217.554688 141.097656 C 217.554688 141.628906 217.503906 142.152344 217.402344 142.671875 C 217.296875 143.191406 217.144531 143.699219 216.941406 144.1875 C 216.738281 144.679688 216.488281 145.144531 216.195312 145.585938 C 215.902344 146.023438 215.566406 146.433594 215.191406 146.808594 C 214.816406 147.183594 214.410156 147.515625 213.96875 147.8125 C 213.527344 148.105469 213.0625 148.355469 212.570312 148.558594 C 212.082031 148.761719 211.578125 148.914062 211.054688 149.019531 C 210.535156 149.121094 210.011719 149.171875 209.480469 149.171875 C 208.949219 149.171875 208.425781 149.121094 207.90625 149.019531 C 207.386719 148.914062 206.878906 148.761719 206.390625 148.558594 C 205.902344 148.355469 205.4375 148.105469 204.996094 147.8125 C 204.554688 147.515625 204.144531 147.183594 203.769531 146.808594 C 203.394531 146.433594 203.0625 146.023438 202.765625 145.585938 C 202.472656 145.144531 202.222656 144.679688 202.019531 144.1875 C 201.816406 143.699219 201.664062 143.191406 201.5625 142.671875 C 201.457031 142.152344 201.40625 141.628906 201.40625 141.097656 C 201.40625 140.566406 201.457031 140.042969 201.5625 139.523438 C 201.664062 139.003906 201.816406 138.496094 202.019531 138.007812 C 202.222656 137.519531 202.472656 137.050781 202.765625 136.613281 C 203.0625 136.171875 203.394531 135.761719 203.769531 135.386719 C 204.144531 135.011719 204.554688 134.679688 204.996094 134.382812 C 205.4375 134.089844 205.902344 133.839844 206.390625 133.636719 C 206.878906 133.433594 207.386719 133.28125 207.90625 133.175781 C 208.425781 133.074219 208.949219 133.023438 209.480469 133.023438 C 210.011719 133.023438 210.535156 133.074219 211.054688 133.175781 C 211.578125 133.28125 212.082031 133.433594 212.570312 133.636719 C 213.0625 133.839844 213.527344 134.089844 213.96875 134.382812 C 214.410156 134.679688 214.816406 135.011719 215.191406 135.386719 C 215.566406 135.761719 215.902344 136.171875 216.195312 136.613281 C 216.488281 137.050781 216.738281 137.519531 216.941406 138.007812 C 217.144531 138.496094 217.296875 139.003906 217.402344 139.523438 C 217.503906 140.042969 217.554688 140.566406 217.554688 141.097656 Z M 217.554688 141.097656 " fill-opacity="1" fill-rule="nonzero"/></g><path fill="#a6a6a6" d="M 155.464844 98.386719 L 173.949219 98.386719 C 174.234375 98.386719 174.507812 98.441406 174.773438 98.550781 C 175.035156 98.660156 175.269531 98.816406 175.472656 99.015625 C 175.671875 99.21875 175.828125 99.453125 175.9375 99.714844 C 176.046875 99.980469 176.101562 100.253906 176.101562 100.539062 L 176.101562 101.078125 C 176.101562 101.363281 176.046875 101.636719 175.9375 101.902344 C 175.828125 102.167969 175.671875 102.398438 175.472656 102.601562 C 175.269531 102.804688 175.035156 102.957031 174.773438 103.066406 C 174.507812 103.175781 174.234375 103.230469 173.949219 103.230469 L 155.464844 103.230469 C 155.179688 103.230469 154.90625 103.175781 154.640625 103.066406 C 154.375 102.957031 154.144531 102.804688 153.941406 102.601562 C 153.738281 102.398438 153.585938 102.167969 153.476562 101.902344 C 153.367188 101.636719 153.3125 101.363281 153.3125 101.078125 L 153.3125 100.539062 C 153.3125 100.253906 153.367188 99.980469 153.476562 99.714844 C 153.585938 99.453125 153.738281 99.21875 153.941406 99.015625 C 154.144531 98.816406 154.375 98.660156 154.640625 98.550781 C 154.90625 98.441406 155.179688 98.386719 155.464844 98.386719 Z M 155.464844 98.386719 " fill-opacity="1" fill-rule="nonzero"/><path fill="#a6a6a6" d="M 155.464844 128.535156 L 173.949219 128.535156 C 174.234375 128.535156 174.507812 128.589844 174.773438 128.699219 C 175.035156 128.808594 175.269531 128.964844 175.472656 129.167969 C 175.671875 129.367188 175.828125 129.601562 175.9375 129.863281 C 176.046875 130.128906 176.101562 130.402344 176.101562 130.6875 L 176.101562 131.226562 C 176.101562 131.511719 176.046875 131.789062 175.9375 132.050781 C 175.828125 132.316406 175.671875 132.546875 175.472656 132.75 C 175.269531 132.953125 175.035156 133.105469 174.773438 133.214844 C 174.507812 133.324219 174.234375 133.378906 173.949219 133.378906 L 155.464844 133.378906 C 155.179688 133.378906 154.90625 133.324219 154.640625 133.214844 C 154.375 133.105469 154.144531 132.953125 153.941406 132.75 C 153.738281 132.546875 153.585938 132.316406 153.476562 132.050781 C 153.367188 131.789062 153.3125 131.511719 153.3125 131.226562 L 153.3125 130.6875 C 153.3125 130.402344 153.367188 130.128906 153.476562 129.863281 C 153.585938 129.601562 153.738281 129.367188 153.941406 129.167969 C 154.144531 128.964844 154.375 128.808594 154.640625 128.699219 C 154.90625 128.589844 155.179688 128.535156 155.464844 128.535156 Z M 155.464844 128.535156 " fill-opacity="1" fill-rule="nonzero"/><g clip-path="url(#3d752f64e7)"><path fill="#a6a6a6" d="M 136.710938 113.101562 L 173.679688 113.101562 C 174 113.101562 174.308594 113.164062 174.605469 113.285156 C 174.902344 113.410156 175.164062 113.585938 175.394531 113.8125 C 175.621094 114.039062 175.792969 114.300781 175.917969 114.597656 C 176.039062 114.894531 176.101562 115.203125 176.101562 115.523438 C 176.101562 115.847656 176.039062 116.15625 175.917969 116.453125 C 175.792969 116.75 175.621094 117.011719 175.394531 117.238281 C 175.164062 117.464844 174.902344 117.640625 174.605469 117.761719 C 174.308594 117.886719 174 117.949219 173.679688 117.949219 L 136.710938 117.949219 C 136.390625 117.949219 136.082031 117.886719 135.785156 117.761719 C 135.488281 117.640625 135.226562 117.464844 135 117.238281 C 134.769531 117.011719 134.597656 116.75 134.472656 116.453125 C 134.351562 116.15625 134.289062 115.847656 134.289062 115.523438 C 134.289062 115.203125 134.351562 114.894531 134.472656 114.597656 C 134.597656 114.300781 134.769531 114.039062 135 113.8125 C 135.226562 113.585938 135.488281 113.410156 135.785156 113.285156 C 136.082031 113.164062 136.390625 113.101562 136.710938 113.101562 Z M 136.710938 113.101562 " fill-opacity="1" fill-rule="nonzero"/></g><g fill="#ffffff" fill-opacity="1"><g transform="translate(43.072424, 266.317946)"><g><path d="M 16.59375 0.640625 C 13.8125 0.640625 11.359375 0.164062 9.234375 -0.78125 C 7.109375 -1.738281 5.429688 -3.109375 4.203125 -4.890625 C 2.984375 -6.671875 2.359375 -8.84375 2.328125 -11.40625 L 9.625 -11.40625 C 9.6875 -9.632812 10.320312 -8.144531 11.53125 -6.9375 C 12.738281 -5.738281 14.40625 -5.140625 16.53125 -5.140625 C 18.375 -5.140625 19.832031 -5.578125 20.90625 -6.453125 C 21.988281 -7.335938 22.53125 -8.519531 22.53125 -10 C 22.53125 -11.539062 22.050781 -12.742188 21.09375 -13.609375 C 20.144531 -14.472656 18.875 -15.175781 17.28125 -15.71875 C 15.695312 -16.257812 14.007812 -16.835938 12.21875 -17.453125 C 9.289062 -18.460938 7.0625 -19.757812 5.53125 -21.34375 C 4 -22.925781 3.234375 -25.03125 3.234375 -27.65625 C 3.203125 -29.894531 3.734375 -31.816406 4.828125 -33.421875 C 5.929688 -35.023438 7.4375 -36.265625 9.34375 -37.140625 C 11.257812 -38.023438 13.457031 -38.46875 15.9375 -38.46875 C 18.457031 -38.46875 20.679688 -38.015625 22.609375 -37.109375 C 24.535156 -36.210938 26.046875 -34.953125 27.140625 -33.328125 C 28.242188 -31.710938 28.832031 -29.789062 28.90625 -27.5625 L 21.5 -27.5625 C 21.46875 -28.894531 20.957031 -30.070312 19.96875 -31.09375 C 18.976562 -32.125 17.597656 -32.640625 15.828125 -32.640625 C 14.316406 -32.671875 13.046875 -32.296875 12.015625 -31.515625 C 10.992188 -30.742188 10.484375 -29.625 10.484375 -28.15625 C 10.484375 -26.894531 10.878906 -25.894531 11.671875 -25.15625 C 12.460938 -24.414062 13.539062 -23.789062 14.90625 -23.28125 C 16.28125 -22.78125 17.847656 -22.242188 19.609375 -21.671875 C 21.484375 -21.015625 23.191406 -20.253906 24.734375 -19.390625 C 26.285156 -18.523438 27.53125 -17.378906 28.46875 -15.953125 C 29.40625 -14.535156 29.875 -12.710938 29.875 -10.484375 C 29.875 -8.503906 29.367188 -6.664062 28.359375 -4.96875 C 27.359375 -3.28125 25.863281 -1.921875 23.875 -0.890625 C 21.894531 0.128906 19.46875 0.640625 16.59375 0.640625 Z M 16.59375 0.640625 "/></g></g></g><g fill="#ffffff" fill-opacity="1"><g transform="translate(75.331645, 266.317946)"><g><path d="M 3.671875 0 L 3.671875 -37.828125 L 10.59375 -37.828125 L 10.59375 0 Z M 3.671875 0 "/></g></g></g><g fill="#ffffff" fill-opacity="1"><g transform="translate(89.597042, 266.317946)"><g><path d="M 16.59375 0.640625 C 13.8125 0.640625 11.359375 0.164062 9.234375 -0.78125 C 7.109375 -1.738281 5.429688 -3.109375 4.203125 -4.890625 C 2.984375 -6.671875 2.359375 -8.84375 2.328125 -11.40625 L 9.625 -11.40625 C 9.6875 -9.632812 10.320312 -8.144531 11.53125 -6.9375 C 12.738281 -5.738281 14.40625 -5.140625 16.53125 -5.140625 C 18.375 -5.140625 19.832031 -5.578125 20.90625 -6.453125 C 21.988281 -7.335938 22.53125 -8.519531 22.53125 -10 C 22.53125 -11.539062 22.050781 -12.742188 21.09375 -13.609375 C 20.144531 -14.472656 18.875 -15.175781 17.28125 -15.71875 C 15.695312 -16.257812 14.007812 -16.835938 12.21875 -17.453125 C 9.289062 -18.460938 7.0625 -19.757812 5.53125 -21.34375 C 4 -22.925781 3.234375 -25.03125 3.234375 -27.65625 C 3.203125 -29.894531 3.734375 -31.816406 4.828125 -33.421875 C 5.929688 -35.023438 7.4375 -36.265625 9.34375 -37.140625 C 11.257812 -38.023438 13.457031 -38.46875 15.9375 -38.46875 C 18.457031 -38.46875 20.679688 -38.015625 22.609375 -37.109375 C 24.535156 -36.210938 26.046875 -34.953125 27.140625 -33.328125 C 28.242188 -31.710938 28.832031 -29.789062 28.90625 -27.5625 L 21.5 -27.5625 C 21.46875 -28.894531 20.957031 -30.070312 19.96875 -31.09375 C 18.976562 -32.125 17.597656 -32.640625 15.828125 -32.640625 C 14.316406 -32.671875 13.046875 -32.296875 12.015625 -31.515625 C 10.992188 -30.742188 10.484375 -29.625 10.484375 -28.15625 C 10.484375 -26.894531 10.878906 -25.894531 11.671875 -25.15625 C 12.460938 -24.414062 13.539062 -23.789062 14.90625 -23.28125 C 16.28125 -22.78125 17.847656 -22.242188 19.609375 -21.671875 C 21.484375 -21.015625 23.191406 -20.253906 24.734375 -19.390625 C 26.285156 -18.523438 27.53125 -17.378906 28.46875 -15.953125 C 29.40625 -14.535156 29.875 -12.710938 29.875 -10.484375 C 29.875 -8.503906 29.367188 -6.664062 28.359375 -4.96875 C 27.359375 -3.28125 25.863281 -1.921875 23.875 -0.890625 C 21.894531 0.128906 19.46875 0.640625 16.59375 0.640625 Z M 16.59375 0.640625 "/></g></g></g><g fill="#ffffff" fill-opacity="1"><g transform="translate(121.856264, 266.317946)"><g><path d="M 14.640625 0 L 0.8125 -37.828125 L 8.21875 -37.828125 L 18.90625 -7.078125 L 29.65625 -37.828125 L 36.953125 -37.828125 L 23.125 0 Z M 14.640625 0 "/></g></g></g><g fill="#ffffff" fill-opacity="1"><g transform="translate(159.62712, 266.317946)"><g><path d="M 3.671875 0 L 3.671875 -37.828125 L 28.359375 -37.828125 L 28.359375 -32.25 L 10.59375 -32.25 L 10.59375 -21.875 L 26.75 -21.875 L 26.75 -16.484375 L 10.59375 -16.484375 L 10.59375 -5.5625 L 28.359375 -5.5625 L 28.359375 0 Z M 3.671875 0 "/></g></g></g><g fill="#ffffff" fill-opacity="1"><g transform="translate(190.859673, 266.317946)"><g><path d="M 3.671875 0 L 3.671875 -37.828125 L 10.59375 -37.828125 L 28.359375 -11.1875 L 28.359375 -37.828125 L 35.28125 -37.828125 L 35.28125 0 L 28.359375 0 L 10.59375 -26.578125 L 10.59375 0 Z M 3.671875 0 "/></g></g></g><g fill="#ffffff" fill-opacity="1"><g transform="translate(229.819298, 266.317946)"><g><path d="M 12.484375 0 L 12.484375 -32.25 L 1.453125 -32.25 L 1.453125 -37.828125 L 30.46875 -37.828125 L 30.46875 -32.25 L 19.390625 -32.25 L 19.390625 0 Z M 12.484375 0 "/></g></g></g><g fill="#ffffff" fill-opacity="1"><g transform="translate(261.75432, 266.317946)"><g><path d="M 1.25 0 L 15.078125 -37.828125 L 22.859375 -37.828125 L 36.6875 0 L 29.34375 0 L 26.3125 -8.75 L 11.5625 -8.75 L 8.484375 0 Z M 13.453125 -14.15625 L 24.421875 -14.15625 L 18.90625 -29.875 Z M 13.453125 -14.15625 "/></g></g></g><g fill="#ffffff" fill-opacity="1"><g transform="translate(299.63325, 266.317946)"><g><path d="M 16.59375 0.640625 C 13.8125 0.640625 11.359375 0.164062 9.234375 -0.78125 C 7.109375 -1.738281 5.429688 -3.109375 4.203125 -4.890625 C 2.984375 -6.671875 2.359375 -8.84375 2.328125 -11.40625 L 9.625 -11.40625 C 9.6875 -9.632812 10.320312 -8.144531 11.53125 -6.9375 C 12.738281 -5.738281 14.40625 -5.140625 16.53125 -5.140625 C 18.375 -5.140625 19.832031 -5.578125 20.90625 -6.453125 C 21.988281 -7.335938 22.53125 -8.519531 22.53125 -10 C 22.53125 -11.539062 22.050781 -12.742188 21.09375 -13.609375 C 20.144531 -14.472656 18.875 -15.175781 17.28125 -15.71875 C 15.695312 -16.257812 14.007812 -16.835938 12.21875 -17.453125 C 9.289062 -18.460938 7.0625 -19.757812 5.53125 -21.34375 C 4 -22.925781 3.234375 -25.03125 3.234375 -27.65625 C 3.203125 -29.894531 3.734375 -31.816406 4.828125 -33.421875 C 5.929688 -35.023438 7.4375 -36.265625 9.34375 -37.140625 C 11.257812 -38.023438 13.457031 -38.46875 15.9375 -38.46875 C 18.457031 -38.46875 20.679688 -38.015625 22.609375 -37.109375 C 24.535156 -36.210938 26.046875 -34.953125 27.140625 -33.328125 C 28.242188 -31.710938 28.832031 -29.789062 28.90625 -27.5625 L 21.5 -27.5625 C 21.46875 -28.894531 20.957031 -30.070312 19.96875 -31.09375 C 18.976562 -32.125 17.597656 -32.640625 15.828125 -32.640625 C 14.316406 -32.671875 13.046875 -32.296875 12.015625 -31.515625 C 10.992188 -30.742188 10.484375 -29.625 10.484375 -28.15625 C 10.484375 -26.894531 10.878906 -25.894531 11.671875 -25.15625 C 12.460938 -24.414062 13.539062 -23.789062 14.90625 -23.28125 C 16.28125 -22.78125 17.847656 -22.242188 19.609375 -21.671875 C 21.484375 -21.015625 23.191406 -20.253906 24.734375 -19.390625 C 26.285156 -18.523438 27.53125 -17.378906 28.46875 -15.953125 C 29.40625 -14.535156 29.875 -12.710938 29.875 -10.484375 C 29.875 -8.503906 29.367188 -6.664062 28.359375 -4.96875 C 27.359375 -3.28125 25.863281 -1.921875 23.875 -0.890625 C 21.894531 0.128906 19.46875 0.640625 16.59375 0.640625 Z M 16.59375 0.640625 "/></g></g></g><g fill="#ffffff" fill-opacity="1"><g transform="translate(87.724124, 300.630484)"><g><path d="M 4.984375 0 L 4.984375 -12.90625 L 0.578125 -12.90625 L 0.578125 -15.125 L 12.1875 -15.125 L 12.1875 -12.90625 L 7.75 -12.90625 L 7.75 0 Z M 4.984375 0 "/></g></g></g><g fill="#ffffff" fill-opacity="1"><g transform="translate(103.740331, 300.630484)"><g><path d="M 1.46875 0 L 1.46875 -15.125 L 4.234375 -15.125 L 4.234375 0 Z M 1.46875 0 "/></g></g></g><g fill="#ffffff" fill-opacity="1"><g transform="translate(112.688666, 300.630484)"><g><path d="M 1.46875 0 L 1.46875 -15.125 L 11.34375 -15.125 L 11.34375 -12.90625 L 4.234375 -12.90625 L 4.234375 -8.75 L 10.703125 -8.75 L 10.703125 -6.59375 L 4.234375 -6.59375 L 4.234375 -2.21875 L 11.34375 -2.21875 L 11.34375 0 Z M 1.46875 0 "/></g></g></g><g fill="#ffffff" fill-opacity="1"><g transform="translate(128.423877, 300.630484)"><g><path d="M 1.46875 0 L 1.46875 -15.125 L 4.234375 -15.125 L 11.34375 -4.46875 L 11.34375 -15.125 L 14.109375 -15.125 L 14.109375 0 L 11.34375 0 L 4.234375 -10.625 L 4.234375 0 Z M 1.46875 0 "/></g></g></g><g fill="#ffffff" fill-opacity="1"><g transform="translate(147.249937, 300.630484)"><g><path d="M 1.46875 0 L 1.46875 -15.125 L 6.640625 -15.125 C 8.410156 -15.125 9.867188 -14.8125 11.015625 -14.1875 C 12.160156 -13.5625 13.007812 -12.679688 13.5625 -11.546875 C 14.113281 -10.421875 14.390625 -9.09375 14.390625 -7.5625 C 14.390625 -6.03125 14.113281 -4.695312 13.5625 -3.5625 C 13.007812 -2.4375 12.160156 -1.5625 11.015625 -0.9375 C 9.867188 -0.3125 8.410156 0 6.640625 0 Z M 4.234375 -2.375 L 6.5 -2.375 C 7.769531 -2.375 8.769531 -2.578125 9.5 -2.984375 C 10.238281 -3.398438 10.765625 -3.992188 11.078125 -4.765625 C 11.398438 -5.535156 11.5625 -6.46875 11.5625 -7.5625 C 11.5625 -8.644531 11.398438 -9.570312 11.078125 -10.34375 C 10.765625 -11.125 10.238281 -11.722656 9.5 -12.140625 C 8.769531 -12.554688 7.769531 -12.765625 6.5 -12.765625 L 4.234375 -12.765625 Z M 4.234375 -2.375 "/></g></g></g><g fill="#ffffff" fill-opacity="1"><g transform="translate(165.859853, 300.630484)"><g><path d="M 0.5 0 L 6.03125 -15.125 L 9.140625 -15.125 L 14.671875 0 L 11.734375 0 L 10.53125 -3.5 L 4.625 -3.5 L 3.390625 0 Z M 5.375 -5.65625 L 9.765625 -5.65625 L 7.5625 -11.953125 Z M 5.375 -5.65625 "/></g></g></g><g fill="#ffffff" fill-opacity="1"><g transform="translate(184.253621, 300.630484)"><g/></g></g><g fill="#ffffff" fill-opacity="1"><g transform="translate(192.639988, 300.630484)"><g><path d="M 8.5625 0.265625 C 7.039062 0.265625 5.710938 -0.0664062 4.578125 -0.734375 C 3.453125 -1.398438 2.566406 -2.316406 1.921875 -3.484375 C 1.285156 -4.660156 0.96875 -6.019531 0.96875 -7.5625 C 0.96875 -9.101562 1.285156 -10.457031 1.921875 -11.625 C 2.566406 -12.800781 3.453125 -13.722656 4.578125 -14.390625 C 5.710938 -15.054688 7.039062 -15.390625 8.5625 -15.390625 C 10.050781 -15.390625 11.363281 -15.054688 12.5 -14.390625 C 13.644531 -13.722656 14.535156 -12.800781 15.171875 -11.625 C 15.804688 -10.457031 16.125 -9.101562 16.125 -7.5625 C 16.125 -6.019531 15.804688 -4.660156 15.171875 -3.484375 C 14.535156 -2.316406 13.644531 -1.398438 12.5 -0.734375 C 11.363281 -0.0664062 10.050781 0.265625 8.5625 0.265625 Z M 8.5625 -2.21875 C 10 -2.21875 11.144531 -2.691406 12 -3.640625 C 12.863281 -4.597656 13.296875 -5.90625 13.296875 -7.5625 C 13.296875 -9.21875 12.863281 -10.519531 12 -11.46875 C 11.144531 -12.425781 10 -12.90625 8.5625 -12.90625 C 7.113281 -12.90625 5.957031 -12.425781 5.09375 -11.46875 C 4.226562 -10.519531 3.796875 -9.21875 3.796875 -7.5625 C 3.796875 -5.90625 4.226562 -4.597656 5.09375 -3.640625 C 5.957031 -2.691406 7.113281 -2.21875 8.5625 -2.21875 Z M 8.5625 -2.21875 "/></g></g></g><g fill="#ffffff" fill-opacity="1"><g transform="translate(212.979041, 300.630484)"><g><path d="M 1.46875 0 L 1.46875 -15.125 L 4.234375 -15.125 L 11.34375 -4.46875 L 11.34375 -15.125 L 14.109375 -15.125 L 14.109375 0 L 11.34375 0 L 4.234375 -10.625 L 4.234375 0 Z M 1.46875 0 "/></g></g></g><g fill="#ffffff" fill-opacity="1"><g transform="translate(231.805104, 300.630484)"><g><path d="M 1.46875 0 L 1.46875 -15.125 L 4.234375 -15.125 L 4.234375 -2.15625 L 10.9375 -2.15625 L 10.9375 0 Z M 1.46875 0 "/></g></g></g><g fill="#ffffff" fill-opacity="1"><g transform="translate(246.956744, 300.630484)"><g><path d="M 1.46875 0 L 1.46875 -15.125 L 4.234375 -15.125 L 4.234375 0 Z M 1.46875 0 "/></g></g></g><g fill="#ffffff" fill-opacity="1"><g transform="translate(255.905083, 300.630484)"><g><path d="M 1.46875 0 L 1.46875 -15.125 L 4.234375 -15.125 L 11.34375 -4.46875 L 11.34375 -15.125 L 14.109375 -15.125 L 14.109375 0 L 11.34375 0 L 4.234375 -10.625 L 4.234375 0 Z M 1.46875 0 "/></g></g></g><g fill="#ffffff" fill-opacity="1"><g transform="translate(274.731135, 300.630484)"><g><path d="M 1.46875 0 L 1.46875 -15.125 L 11.34375 -15.125 L 11.34375 -12.90625 L 4.234375 -12.90625 L 4.234375 -8.75 L 10.703125 -8.75 L 10.703125 -6.59375 L 4.234375 -6.59375 L 4.234375 -2.21875 L 11.34375 -2.21875 L 11.34375 0 Z M 1.46875 0 "/></g></g></g></svg>